<svg width="103" height="32" viewBox="0 0 103 32" fill="none" xmlns="http://www.w3.org/2000/svg">
<path d="M27.9225 21.586L25.3815 26.239V29H24.4905V26.25L21.9715 21.586H23.0055L23.5665 22.675C23.9479 23.4083 24.2522 24.006 24.4795 24.468C24.7069 24.93 24.8389 25.2087 24.8755 25.304L24.9305 25.436C24.9965 25.2527 25.4622 24.3323 26.3275 22.675L26.8885 21.586H27.9225ZM31.2751 29.099C30.4757 29.099 29.8414 28.8313 29.3721 28.296C28.9101 27.7533 28.6791 27.0713 28.6791 26.25C28.6791 25.4213 28.9174 24.732 29.3941 24.182C29.8781 23.6247 30.5051 23.346 31.2751 23.346C32.1184 23.346 32.7674 23.6173 33.2221 24.16C33.6841 24.7027 33.9151 25.392 33.9151 26.228C33.9151 27.0567 33.6804 27.7423 33.2111 28.285C32.7417 28.8277 32.0964 29.099 31.2751 29.099ZM31.2751 24.116C30.7471 24.116 30.3327 24.3213 30.0321 24.732C29.7314 25.1427 29.5811 25.645 29.5811 26.239C29.5811 26.8183 29.7351 27.3133 30.0431 27.724C30.3511 28.1273 30.7617 28.329 31.2751 28.329C31.8324 28.329 32.2614 28.131 32.5621 27.735C32.8627 27.3317 33.0131 26.833 33.0131 26.239C33.0131 25.623 32.8701 25.117 32.5841 24.721C32.2981 24.3177 31.8617 24.116 31.2751 24.116ZM37.2758 28.087C37.6791 28.087 38.0348 27.933 38.3428 27.625C38.6581 27.3097 38.8158 26.844 38.8158 26.228C38.8158 25.5167 38.6655 24.9887 38.3648 24.644C38.0641 24.2993 37.7158 24.127 37.3198 24.127C36.8431 24.127 36.4655 24.3177 36.1868 24.699C35.9081 25.073 35.7688 25.5643 35.7688 26.173C35.7688 26.7963 35.9228 27.273 36.2308 27.603C36.5388 27.9257 36.8871 28.087 37.2758 28.087ZM38.8158 23.423H39.6848V28.549C39.6848 29.3997 39.4501 30.0377 38.9808 30.463C38.5115 30.8957 37.9065 31.112 37.1658 31.112C36.4911 31.112 35.9155 30.9983 35.4388 30.771V29.902C35.9081 30.1733 36.4581 30.309 37.0888 30.309C37.6241 30.309 38.0458 30.166 38.3538 29.88C38.6618 29.594 38.8158 29.1467 38.8158 28.538V27.911C38.4491 28.5417 37.9028 28.857 37.1768 28.857C36.5388 28.857 35.9925 28.6223 35.5378 28.153C35.0905 27.6837 34.8668 27.031 34.8668 26.195C34.8668 25.3663 35.0758 24.6843 35.4938 24.149C35.9118 23.6137 36.4581 23.346 37.1328 23.346C37.8955 23.346 38.4565 23.6797 38.8158 24.347V23.423ZM44.2259 26.426H43.2579C42.7886 26.426 42.4366 26.5177 42.2019 26.701C41.9673 26.8843 41.8499 27.1153 41.8499 27.394C41.8499 27.6727 41.9416 27.9 42.1249 28.076C42.3083 28.2447 42.5759 28.329 42.9279 28.329C43.3239 28.329 43.6393 28.219 43.8739 27.999C44.1086 27.7717 44.2259 27.4857 44.2259 27.141V26.426ZM41.3439 24.589V23.72C41.7619 23.4633 42.3119 23.335 42.9939 23.335C44.3946 23.335 45.0949 24.0463 45.0949 25.469V29H44.2369V28.34C43.9509 28.8167 43.4303 29.055 42.6749 29.055C42.1543 29.055 41.7326 28.901 41.4099 28.593C41.0946 28.285 40.9369 27.8963 40.9369 27.427C40.9369 26.8917 41.1386 26.4773 41.5419 26.184C41.9526 25.8833 42.5099 25.733 43.2139 25.733H44.2259V25.447C44.2259 25.007 44.1269 24.677 43.9289 24.457C43.7309 24.2297 43.3973 24.116 42.9279 24.116C42.3339 24.116 41.8059 24.2737 41.3439 24.589ZM49.299 28.285C49.9883 28.285 50.5603 28.1017 51.015 27.735C50.7583 27.493 50.4577 27.2143 50.113 26.899C49.7683 26.5763 49.486 26.316 49.266 26.118C49.0533 25.92 48.9103 25.7843 48.837 25.711C48.3677 25.887 48.0193 26.0813 47.792 26.294C47.5647 26.5067 47.451 26.7597 47.451 27.053C47.451 27.427 47.6233 27.7277 47.968 27.955C48.3127 28.175 48.7563 28.285 49.299 28.285ZM49.332 22.202C49.002 22.202 48.727 22.2973 48.507 22.488C48.2943 22.6713 48.188 22.928 48.188 23.258C48.188 23.4927 48.254 23.7273 48.386 23.962C48.5253 24.1893 48.771 24.4827 49.123 24.842C49.6143 24.6147 49.97 24.3837 50.19 24.149C50.4173 23.907 50.531 23.632 50.531 23.324C50.531 23.0087 50.4283 22.7447 50.223 22.532C50.0177 22.312 49.7207 22.202 49.332 22.202ZM53.545 29H52.368L51.62 28.307C51.026 28.8277 50.2597 29.088 49.321 29.088C48.4923 29.088 47.8213 28.901 47.308 28.527C46.802 28.1457 46.549 27.658 46.549 27.064C46.549 26.2353 47.1283 25.601 48.287 25.161C47.9423 24.787 47.6893 24.457 47.528 24.171C47.3667 23.8777 47.286 23.5697 47.286 23.247C47.286 22.697 47.473 22.2533 47.847 21.916C48.221 21.5787 48.7197 21.41 49.343 21.41C49.9663 21.41 50.4687 21.5933 50.85 21.96C51.2313 22.3193 51.422 22.7703 51.422 23.313C51.422 23.731 51.2863 24.1087 51.015 24.446C50.751 24.7833 50.3037 25.0987 49.673 25.392L51.532 27.13C51.708 26.8073 51.8107 26.448 51.84 26.052H52.676C52.632 26.6827 52.456 27.2327 52.148 27.702L53.545 29ZM55.8234 26.294H58.4524L58.3094 25.865L57.1544 22.301C57.0664 22.6163 56.6704 23.808 55.9664 25.876L55.8234 26.294ZM59.3544 29L58.7054 27.053H55.5704L54.9104 29H53.9534L56.5384 21.586H57.7704L60.3114 29H59.3544ZM62.0762 26.239C62.0835 26.8403 62.2668 27.3427 62.6262 27.746C62.9855 28.142 63.4952 28.34 64.1552 28.34C64.5805 28.34 64.9765 28.219 65.3432 27.977V28.802C64.9912 29.0147 64.5585 29.121 64.0452 29.121C63.1652 29.121 62.4648 28.8423 61.9442 28.285C61.4308 27.7203 61.1742 27.0347 61.1742 26.228C61.1742 25.436 61.4308 24.754 61.9442 24.182C62.4648 23.61 63.1725 23.324 64.0672 23.324C64.5438 23.324 64.9692 23.4267 65.3432 23.632V24.457C65.0058 24.2297 64.6098 24.116 64.1552 24.116C63.5245 24.116 63.0185 24.3213 62.6372 24.732C62.2632 25.1353 62.0762 25.6377 62.0762 26.239ZM67.5399 23.423V24.402C67.8332 23.7127 68.3392 23.368 69.0579 23.368C69.1899 23.368 69.2926 23.3753 69.3659 23.39V24.248C69.2119 24.1967 69.0542 24.171 68.8929 24.171C68.5042 24.171 68.1816 24.3507 67.9249 24.71C67.6682 25.0693 67.5399 25.4837 67.5399 25.953V29H66.6709L66.6819 23.423H67.5399ZM72.5358 29.099C71.7365 29.099 71.1021 28.8313 70.6328 28.296C70.1708 27.7533 69.9398 27.0713 69.9398 26.25C69.9398 25.4213 70.1781 24.732 70.6548 24.182C71.1388 23.6247 71.7658 23.346 72.5358 23.346C73.3791 23.346 74.0281 23.6173 74.4828 24.16C74.9448 24.7027 75.1758 25.392 75.1758 26.228C75.1758 27.0567 74.9411 27.7423 74.4718 28.285C74.0025 28.8277 73.3571 29.099 72.5358 29.099ZM72.5358 24.116C72.0078 24.116 71.5935 24.3213 71.2928 24.732C70.9921 25.1427 70.8418 25.645 70.8418 26.239C70.8418 26.8183 70.9958 27.3133 71.3038 27.724C71.6118 28.1273 72.0225 28.329 72.5358 28.329C73.0931 28.329 73.5221 28.131 73.8228 27.735C74.1235 27.3317 74.2738 26.833 74.2738 26.239C74.2738 25.623 74.1308 25.117 73.8448 24.721C73.5588 24.3177 73.1225 24.116 72.5358 24.116Z" fill="white"/>
<path d="M4.2 4.52C4.2 4.58667 4.2 4.65333 4.2 4.72V4.98C4.2 5.7 3.88667 6.42667 3.26 7.16C2.64667 7.88 1.96667 8.48 1.22 8.96C1.03333 9.06667 0.88 9.12 0.76 9.12C0.533333 9.12 0.346667 8.95333 0.2 8.62C0.0666667 8.27333 0 7.98667 0 7.76C0 7.52 0.0866667 7.28 0.26 7.04C1.40667 5.52 2.66667 4.29333 4.04 3.36C4.30667 3.17333 4.60667 3.08 4.94 3.08C5.28667 3.08 5.66 3.18667 6.06 3.4C6.62 3.69333 6.9 4.25333 6.9 5.08C6.9 5.48 6.80667 5.97333 6.62 6.56C6.44667 7.13333 6.28 7.65333 6.12 8.12C5.97333 8.57333 5.88667 8.84667 5.86 8.94C6.5 8.34 7.26 7.34667 8.14 5.96C8.47333 5.42667 8.70667 5.06 8.84 4.86C9.53333 3.76667 9.95333 3.06667 10.1 2.76C10.1 2.42667 10.2 2.26 10.4 2.26C10.5333 2.26 10.6867 2.34667 10.86 2.52C11.0467 2.68 11.1867 2.8 11.28 2.88C11.3867 2.96 11.44 3.04667 11.44 3.14C11.44 3.23333 11.4 3.34667 11.32 3.48C10.32 5.74667 8.67333 8.09333 6.38 10.52C6.35333 10.5467 6.34 10.58 6.34 10.62C6.34 10.82 6.56667 10.92 7.02 10.92C7.67333 11.0933 8.18667 11.5933 8.56 12.42C8.61333 12.5267 8.74667 12.8533 8.96 13.4C9.18667 13.9333 9.36667 14.34 9.5 14.62C9.63333 14.94 9.8 15.1 10 15.1C10.08 15.1 10.1733 15.0667 10.28 15C10.3867 14.9333 10.46 14.9 10.5 14.9C10.7 14.9 10.8 15.1533 10.8 15.66C10.8 16.1533 10.7667 16.4933 10.7 16.68C10.6333 16.8533 10.4267 17.0667 10.08 17.32C9.74667 17.5733 9.46667 17.7 9.24 17.7C9.02667 17.7 8.72667 17.4733 8.34 17.02C7.95333 16.5533 7.56667 15.7467 7.18 14.6C6.79333 13.4533 6.54 12.7533 6.42 12.5C6.27333 12.1533 6.09333 11.98 5.88 11.98C5.68 11.98 5.50667 12.1 5.36 12.34C5.22667 12.5667 5.05333 12.6733 4.84 12.66C4.64 13.5933 4.54 14.3467 4.54 14.92C4.54 15.48 4.56 15.88 4.6 16.12C4.64 16.36 4.66 16.5467 4.66 16.68C4.66 16.8133 4.56667 16.9667 4.38 17.14C4.19333 17.3133 4.00667 17.4 3.82 17.4C3.64667 17.4 3.42667 17.2533 3.16 16.96C2.98667 16.7867 2.89333 16.6333 2.88 16.5C2.85333 16.2467 2.82667 15.9133 2.8 15.5C2.77333 15.0867 2.76 14.7267 2.76 14.42C2.76 13.3933 2.87333 12.3667 3.1 11.34C3.34 10.3133 3.67333 9.15333 4.1 7.86C4.72667 5.96667 5.04 4.88667 5.04 4.62C5.04 4.35333 4.92 4.22 4.68 4.22C4.38667 4.22 4.22667 4.32 4.2 4.52ZM15.3845 14.36C14.2912 16.32 13.4579 17.3 12.8845 17.3C12.4712 17.3 12.0979 17.0467 11.7645 16.54C11.6712 16.4067 11.5712 16.2 11.4645 15.92C11.3579 15.6267 11.2245 15.36 11.0645 15.12C10.9179 14.88 10.8445 14.56 10.8445 14.16C10.8445 13.7467 10.9245 13.38 11.0845 13.06C12.1779 10.9 13.3312 9.42 14.5445 8.62C14.7045 8.5 14.8912 8.44 15.1045 8.44C15.3179 8.44 15.5845 8.56 15.9045 8.8C16.0912 8.98667 16.2045 9.14667 16.2445 9.28C16.3112 9.57333 16.3445 9.75333 16.3445 9.82C16.8112 9.98 17.0445 10.2733 17.0445 10.7C17.0445 10.9933 16.9645 11.66 16.8045 12.7C16.6445 13.7267 16.5512 14.4933 16.5245 15C16.5245 15.28 16.6179 15.42 16.8045 15.42C17.0179 15.42 17.3979 15.0467 17.9445 14.3C18.5045 13.5533 18.8245 13.18 18.9045 13.18C19.0379 13.18 19.1045 13.4 19.1045 13.84L19.0645 14.82C19.0645 15.1933 18.8979 15.7067 18.5645 16.36C18.2312 17 17.8045 17.32 17.2845 17.32C16.9645 17.32 16.7112 17.2133 16.5245 17C16.4579 16.9333 16.3579 16.8 16.2245 16.6C15.8112 16 15.5312 15.2533 15.3845 14.36ZM15.5645 9.74C13.8845 11.2733 12.8179 13.0267 12.3645 15C13.7112 13.84 14.7779 12.0867 15.5645 9.74ZM25.1886 12.5C25.2819 12.5 25.3286 12.78 25.3286 13.34C25.3286 13.8867 25.1419 14.44 24.7686 15C24.6086 15.32 24.3486 15.6933 23.9886 16.12C23.6419 16.5333 23.4086 16.7867 23.2886 16.88C22.9286 17.1333 22.6353 17.26 22.4086 17.26C22.1953 17.26 22.0353 17.2467 21.9286 17.22C21.8219 17.1933 21.7153 17.14 21.6086 17.06C21.5153 16.9667 21.4353 16.9 21.3686 16.86C21.3153 16.8067 21.2419 16.7133 21.1486 16.58C21.0686 16.4333 21.0153 16.34 20.9886 16.3C20.9619 16.26 20.9019 16.1533 20.8086 15.98C20.7153 15.8067 20.6686 15.7133 20.6686 15.7C20.4153 15.2333 20.2886 14.7933 20.2886 14.38C20.2886 13.9533 20.3219 13.56 20.3886 13.2C20.4686 12.8267 20.5886 12.3733 20.7486 11.84C20.9086 11.3067 21.0086 10.9667 21.0486 10.82C20.8486 11.0733 20.5819 11.3467 20.2486 11.64C20.1153 11.7467 19.9686 11.8 19.8086 11.8C19.6619 11.8 19.5353 11.7333 19.4286 11.6C19.3353 11.4533 19.2086 11.1467 19.0486 10.68C18.8886 10.2133 18.8086 9.9 18.8086 9.74C18.8086 9.56667 18.9153 9.30667 19.1286 8.96C19.3419 8.6 19.4686 8.36 19.5086 8.24C19.5753 8 19.6753 7.88 19.8086 7.88C19.8753 7.88 20.0353 7.95333 20.2886 8.1C20.5419 8.23333 20.7086 8.5 20.7886 8.9C20.8153 9.06 20.8753 9.14 20.9686 9.14C21.0086 9.14 21.1219 9.06667 21.3086 8.92C21.5086 8.77333 21.7219 8.7 21.9486 8.7C22.1886 8.7 22.5419 8.91333 23.0086 9.34C23.1686 9.5 23.2486 9.72667 23.2486 10.02C23.2486 10.3133 23.2286 10.52 23.1886 10.64C23.1619 10.76 23.1286 10.84 23.0886 10.88C22.9686 10.9733 22.8753 11.1067 22.8086 11.28C22.7553 11.44 22.5753 12.0667 22.2686 13.16C21.9753 14.24 21.8286 14.8333 21.8286 14.94C21.8286 15.0467 21.8686 15.1 21.9486 15.1C22.0553 15.1 22.4819 14.78 23.2286 14.14C23.9753 13.5 24.5153 13.0267 24.8486 12.72C25.0486 12.5733 25.1619 12.5 25.1886 12.5ZM29.0414 3.24C29.0414 3.68 28.8547 4.29333 28.4814 5.08C28.1081 5.85333 27.7547 6.41333 27.4214 6.76C27.3681 6.84 27.2881 6.88 27.1814 6.88C26.8481 6.88 26.6814 6.61333 26.6814 6.08C26.6814 5.54667 26.9147 4.8 27.3814 3.84C27.4747 3.64 27.5347 3.43333 27.5614 3.22C27.5881 3.00667 27.6014 2.88667 27.6014 2.86C27.6147 2.82 27.6214 2.79333 27.6214 2.78C27.6347 2.75333 27.6414 2.72667 27.6414 2.7C27.6547 2.66 27.6614 2.63333 27.6614 2.62C27.6747 2.59333 27.6881 2.57333 27.7014 2.56C27.7147 2.53333 27.7281 2.51333 27.7414 2.5C27.7814 2.47333 27.8881 2.46 28.0614 2.46C28.2347 2.46 28.4414 2.53333 28.6814 2.68C28.9214 2.82667 29.0414 3.01333 29.0414 3.24ZM29.2414 12.12C29.3881 11.8933 29.4881 11.78 29.5414 11.78C29.6081 11.78 29.6547 11.9467 29.6814 12.28C29.7214 12.6133 29.7414 13.06 29.7414 13.62C29.7414 14.1667 29.6081 14.76 29.3414 15.4C29.0881 16.0267 28.7147 16.5333 28.2214 16.92C27.9414 17.1333 27.6814 17.24 27.4414 17.24C27.2147 17.24 27.0214 17.1933 26.8614 17.1C26.7147 16.9933 26.5814 16.8267 26.4614 16.6C26.2614 16.28 26.0614 15.8667 25.8614 15.36C25.6747 14.8533 25.5814 14.3067 25.5814 13.72C25.5814 13.1333 25.6281 12.54 25.7214 11.94C25.8147 11.34 25.8614 10.94 25.8614 10.74C25.8614 10.5267 25.7547 10.26 25.5414 9.94C25.3281 9.60667 25.2214 9.40667 25.2214 9.34C25.2214 9.27333 25.2414 9.20667 25.2814 9.14C25.3347 9.06 25.3947 8.98667 25.4614 8.92C25.5414 8.84 25.6147 8.77333 25.6814 8.72C25.7614 8.66667 25.8481 8.6 25.9414 8.52C26.2481 8.26667 26.5281 8.14 26.7814 8.14C27.0347 8.14 27.2547 8.22667 27.4414 8.4C27.6414 8.57333 27.7347 8.87333 27.7214 9.3C27.7214 9.72667 27.6214 10.5333 27.4214 11.72C27.1681 13.24 27.0414 14.1133 27.0414 14.34C27.0414 14.5667 27.1014 14.68 27.2214 14.68C27.4881 14.68 28.1614 13.8267 29.2414 12.12ZM36.7661 12.56C36.7661 13.2133 36.7328 13.78 36.6661 14.26C36.5994 14.74 36.3594 15.3867 35.9461 16.2C35.5328 17 35.1261 17.4 34.7261 17.4C34.5528 17.4 34.3861 17.3067 34.2261 17.12C33.4394 16.1733 33.0461 15.2733 33.0461 14.42C33.0461 14.1667 33.1328 13.5867 33.3061 12.68C33.5461 11.32 33.6661 10.5667 33.6661 10.42C33.6661 10.26 33.6394 10.18 33.5861 10.18C33.5461 10.18 33.4994 10.2333 33.4461 10.34C33.0994 10.9533 32.8194 11.6533 32.6061 12.44C32.3928 13.2133 32.2528 13.8667 32.1861 14.4C32.1194 14.9333 32.0461 15.68 31.9661 16.64C31.9661 16.9733 31.8794 17.14 31.7061 17.14C31.6261 17.14 31.4928 17.0667 31.3061 16.92C30.5861 16.3067 30.2261 15.4667 30.2261 14.4C30.2261 13.9467 30.2661 13.32 30.3461 12.52C30.4394 11.72 30.4928 11.1667 30.5061 10.86C30.6528 9.00667 30.8328 8.08 31.0461 8.08C31.1661 8.08 31.2528 8.21333 31.3061 8.48C31.3594 8.73333 31.3861 9.02667 31.3861 9.36C31.3861 9.68 31.3928 9.97333 31.4061 10.24C31.4328 10.5067 31.4861 10.64 31.5661 10.64C31.6461 10.64 31.7594 10.4267 31.9061 10C32.0528 9.57333 32.2661 9.14667 32.5461 8.72C32.8394 8.28 33.1528 8.06 33.4861 8.06C33.8194 8.06 34.1128 8.13333 34.3661 8.28C34.9394 8.57333 35.2261 9.18667 35.2261 10.12C35.2261 10.44 35.1861 10.8333 35.1061 11.3C35.0261 11.7667 34.9528 12.28 34.8861 12.84C34.8328 13.3867 34.8061 13.7 34.8061 13.78C34.8061 13.8467 34.8328 13.88 34.8861 13.88C34.9928 13.88 35.2594 13.6133 35.6861 13.08C36.1261 12.5467 36.4261 12.28 36.5861 12.28C36.7061 12.28 36.7661 12.3733 36.7661 12.56ZM41.4978 14.36C40.4045 16.32 39.5711 17.3 38.9978 17.3C38.5845 17.3 38.2111 17.0467 37.8778 16.54C37.7845 16.4067 37.6845 16.2 37.5778 15.92C37.4711 15.6267 37.3378 15.36 37.1778 15.12C37.0311 14.88 36.9578 14.56 36.9578 14.16C36.9578 13.7467 37.0378 13.38 37.1978 13.06C38.2911 10.9 39.4445 9.42 40.6578 8.62C40.8178 8.5 41.0045 8.44 41.2178 8.44C41.4311 8.44 41.6978 8.56 42.0178 8.8C42.2045 8.98667 42.3178 9.14667 42.3578 9.28C42.4245 9.57333 42.4578 9.75333 42.4578 9.82C42.9245 9.98 43.1578 10.2733 43.1578 10.7C43.1578 10.9933 43.0778 11.66 42.9178 12.7C42.7578 13.7267 42.6645 14.4933 42.6378 15C42.6378 15.28 42.7311 15.42 42.9178 15.42C43.1311 15.42 43.5111 15.0467 44.0578 14.3C44.6178 13.5533 44.9378 13.18 45.0178 13.18C45.1511 13.18 45.2178 13.4 45.2178 13.84L45.1778 14.82C45.1778 15.1933 45.0111 15.7067 44.6778 16.36C44.3445 17 43.9178 17.32 43.3978 17.32C43.0778 17.32 42.8245 17.2133 42.6378 17C42.5711 16.9333 42.4711 16.8 42.3378 16.6C41.9245 16 41.6445 15.2533 41.4978 14.36ZM41.6778 9.74C39.9978 11.2733 38.9311 13.0267 38.4778 15C39.8245 13.84 40.8911 12.0867 41.6778 9.74ZM55.6402 11.02C56.2935 8.07333 56.6202 5.86 56.6202 4.38V3.86C56.6202 3.63333 56.6735 3.46667 56.7802 3.36C56.9002 3.24 57.0202 3.17333 57.1402 3.16C57.2735 3.13333 57.5268 3.12 57.9002 3.12C58.2868 3.12 58.6868 3.26 59.1002 3.54C59.5268 3.82 59.7402 4.2 59.7402 4.68C59.7402 4.77333 59.6802 5.35333 59.5602 6.42C59.4402 7.48667 59.3602 8.85333 59.3202 10.52C59.7735 10.3333 60.1335 10.14 60.4002 9.94C60.6802 9.72667 60.8668 9.62 60.9602 9.62C61.1068 9.62 61.1802 9.76 61.1802 10.04C61.1802 10.3067 60.9735 10.6533 60.5602 11.08C60.1468 11.4933 59.7335 11.8333 59.3202 12.1C59.3202 12.3933 59.3335 12.86 59.3602 13.5C59.4002 13.4733 59.4535 13.46 59.5202 13.46C59.6002 13.46 59.6735 13.48 59.7402 13.52C59.8202 13.56 59.8868 13.6067 59.9402 13.66C60.0068 13.7133 60.0802 13.7933 60.1602 13.9C60.2402 13.9933 60.3002 14.0667 60.3402 14.12C60.3802 14.1733 60.4335 14.2533 60.5002 14.36C60.5668 14.4533 60.6068 14.5067 60.6202 14.52C60.8602 14.88 60.9802 15.1667 60.9802 15.38C60.9802 15.58 60.9402 15.8133 60.8602 16.08C60.5535 16.8667 60.3468 17.5533 60.2402 18.14C60.1868 18.42 60.0268 18.56 59.7602 18.56C59.4668 18.56 59.2602 18.48 59.1402 18.32C59.0335 18.1733 58.9468 18.0533 58.8802 17.96C58.8268 17.8667 58.7735 17.7333 58.7202 17.56C58.6802 17.3867 58.6468 17.2533 58.6202 17.16C58.5935 17.0533 58.5668 16.8933 58.5402 16.68C58.5002 16.4 58.4735 16.12 58.4602 15.84L58.4402 15.52C58.3868 14.88 58.3202 13.9067 58.2402 12.6C57.8935 12.72 57.3602 12.7933 56.6402 12.82C56.4268 13.78 56.2068 14.6667 55.9802 15.48C55.7668 16.28 55.4068 16.92 54.9002 17.4C54.4068 17.88 53.8002 18.12 53.0802 18.12C52.8668 18.12 52.6135 18.0867 52.3202 18.02C50.6002 17.5533 49.4268 16.4667 48.8002 14.76C48.6402 14.32 48.5602 13.9333 48.5602 13.6C48.5602 12.8 48.8935 12.2533 49.5602 11.96C51.0002 11.3067 52.4068 10.98 53.7802 10.98L55.6402 11.02ZM58.1602 10.82C58.1068 9.64667 58.0535 7.86 58.0002 5.46C57.8935 6.07333 57.7268 6.99333 57.5002 8.22C57.2868 9.44667 57.1268 10.3667 57.0202 10.98C57.5268 10.9267 57.9068 10.8733 58.1602 10.82ZM53.9002 12.84C52.2735 12.84 50.9735 12.9533 50.0002 13.18C49.4535 13.2867 49.1802 13.4867 49.1802 13.78C49.1802 14.0067 49.3602 14.3 49.7202 14.66C50.0802 15.02 50.5468 15.3 51.1202 15.5C51.6935 15.6867 52.1735 15.78 52.5602 15.78C52.9468 15.78 53.2668 15.7133 53.5202 15.58C53.7868 15.4467 53.9935 15.3067 54.1402 15.16C54.3002 15.0133 54.4535 14.7733 54.6002 14.44C54.7868 14.0267 54.9802 13.4933 55.1802 12.84H53.9002ZM64.4519 8.42C65.1319 8.42 65.6519 8.52667 66.0119 8.74C66.3719 8.95333 66.7119 9.36 67.0319 9.96C67.1652 10.1867 67.2319 10.4267 67.2319 10.68C67.2319 10.92 67.1385 11.1333 66.9519 11.32C66.5119 11.7867 65.8185 12.4067 64.8719 13.18C63.9385 13.9533 63.3785 14.42 63.1919 14.58L65.0919 14.5C65.4919 14.5 65.7719 14.5333 65.9319 14.6C66.0919 14.6533 66.1985 14.7467 66.2519 14.88C66.3052 15 66.3319 15.2067 66.3319 15.5C66.3319 15.7933 66.2052 15.96 65.9519 16C65.5385 16.08 64.7252 16.34 63.5119 16.78C63.2585 16.8733 62.9985 16.92 62.7319 16.92C62.4652 16.92 62.2385 16.78 62.0519 16.5C61.6652 15.8067 61.4719 15.2867 61.4719 14.94C61.4719 14.5933 61.5852 14.2733 61.8119 13.98C62.2252 13.4733 62.8785 12.7933 63.7719 11.94C64.6652 11.0733 65.1785 10.5667 65.3119 10.42C63.6052 10.7 62.6452 10.84 62.4319 10.84C62.2185 10.84 62.0519 10.82 61.9319 10.78C61.8119 10.7267 61.7185 10.6333 61.6519 10.5C61.4652 10.1267 61.3719 9.76667 61.3719 9.42C61.3719 8.86 61.9185 8.36 63.0119 7.92C63.0919 7.88 63.1785 7.86 63.2719 7.86C63.4452 7.86 63.5452 7.96667 63.5719 8.18C63.6119 8.35333 63.7719 8.44 64.0519 8.44L64.4519 8.42ZM73.3713 14.36C73.3713 16.3867 72.3446 17.4 70.2913 17.4C69.4379 17.4 68.8113 17.18 68.4113 16.74C68.0246 16.3 67.6846 15.6267 67.3913 14.72C67.2846 14.3733 67.2313 14.0067 67.2313 13.62C67.2313 13.22 67.4046 12.6933 67.7513 12.04C68.1113 11.3733 68.5046 10.7933 68.9313 10.3C68.9846 9.56667 69.1513 9.2 69.4313 9.2C69.5779 9.2 69.6779 9.28667 69.7313 9.46C70.0113 9.20667 70.3513 8.96 70.7513 8.72C71.1513 8.48 71.5113 8.36 71.8313 8.36C72.1513 8.36 72.4779 8.54667 72.8113 8.92C73.1579 9.29333 73.3313 9.68 73.3313 10.08C73.3313 10.4667 73.0579 11 72.5113 11.68C71.4846 12.96 70.6779 13.6 70.0913 13.6C69.6646 13.6 69.3313 13.2467 69.0913 12.54C69.0779 12.5667 69.0113 12.68 68.8913 12.88C68.7846 13.0667 68.7046 13.2067 68.6513 13.3C68.6113 13.3933 68.5513 13.52 68.4713 13.68C68.3379 13.9867 68.2713 14.26 68.2713 14.5C68.2713 15.0467 68.5446 15.32 69.0913 15.32C69.9979 15.32 70.7646 15.1333 71.3913 14.76C72.0313 14.3733 72.6646 13.7933 73.2913 13.02C73.3446 13.6067 73.3713 14.0533 73.3713 14.36ZM70.1113 11.94C70.3246 11.94 70.6379 11.68 71.0513 11.16C71.4779 10.64 71.6913 10.2867 71.6913 10.1C71.6913 9.9 71.6179 9.8 71.4713 9.8C71.3379 9.8 71.0979 9.97333 70.7513 10.32C70.4179 10.6667 70.1513 10.9667 69.9513 11.22C69.9246 11.38 69.9113 11.5 69.9113 11.58C69.9113 11.82 69.9779 11.94 70.1113 11.94ZM75.1695 7.74C75.6229 7.74 76.0895 7.96667 76.5695 8.42C76.8229 8.66 76.9495 8.89333 76.9495 9.12C76.9495 9.53333 76.5962 11.2 75.8895 14.12C75.8629 14.2533 75.8495 14.3733 75.8495 14.48C75.8495 14.5867 75.8762 14.64 75.9295 14.64C75.9829 14.64 76.0695 14.58 76.1895 14.46C76.6162 13.9267 76.9162 13.4 77.0895 12.88C77.2629 12.36 77.3895 11.98 77.4695 11.74C77.5495 11.4867 77.6229 11.1333 77.6895 10.68C77.7562 10.2267 77.8029 9.90667 77.8295 9.72C77.8695 9.46667 77.9429 8.78667 78.0495 7.68C78.0895 7.42667 78.1629 7.3 78.2695 7.3C78.3895 7.3 78.4695 7.4 78.5095 7.6C78.7895 9.12 78.9295 10.6667 78.9295 12.24C78.9295 13.8133 78.5629 15.1467 77.8295 16.24C77.4562 16.8267 77.0295 17.12 76.5495 17.12C76.3495 17.12 76.1562 17.0667 75.9695 16.96C75.4495 16.72 75.0362 16.2867 74.7295 15.66C74.4229 15.0333 74.2695 14.4067 74.2695 13.78C74.2695 13.34 74.3162 12.9467 74.4095 12.6C74.5162 12.24 74.6162 11.9067 74.7095 11.6C74.8562 11.12 74.9295 10.82 74.9295 10.7C74.9295 10.5667 74.8029 10.4467 74.5495 10.34C74.3095 10.2333 74.1495 10.0933 74.0695 9.92C74.0029 9.73333 73.9029 9.38 73.7695 8.86C73.6362 8.32667 73.5695 8.01333 73.5695 7.92C73.5695 7.82667 73.6162 7.78 73.7095 7.78L74.2095 7.82L75.1695 7.74ZM85.6759 14.36C85.6759 16.3867 84.6493 17.4 82.5959 17.4C81.7426 17.4 81.1159 17.18 80.7159 16.74C80.3293 16.3 79.9893 15.6267 79.6959 14.72C79.5893 14.3733 79.5359 14.0067 79.5359 13.62C79.5359 13.22 79.7093 12.6933 80.0559 12.04C80.4159 11.3733 80.8093 10.7933 81.2359 10.3C81.2893 9.56667 81.4559 9.2 81.7359 9.2C81.8826 9.2 81.9826 9.28667 82.0359 9.46C82.3159 9.20667 82.6559 8.96 83.0559 8.72C83.4559 8.48 83.8159 8.36 84.1359 8.36C84.4559 8.36 84.7826 8.54667 85.1159 8.92C85.4626 9.29333 85.6359 9.68 85.6359 10.08C85.6359 10.4667 85.3626 11 84.8159 11.68C83.7893 12.96 82.9826 13.6 82.3959 13.6C81.9693 13.6 81.6359 13.2467 81.3959 12.54C81.3826 12.5667 81.3159 12.68 81.1959 12.88C81.0893 13.0667 81.0093 13.2067 80.9559 13.3C80.9159 13.3933 80.8559 13.52 80.7759 13.68C80.6426 13.9867 80.5759 14.26 80.5759 14.5C80.5759 15.0467 80.8493 15.32 81.3959 15.32C82.3026 15.32 83.0693 15.1333 83.6959 14.76C84.3359 14.3733 84.9693 13.7933 85.5959 13.02C85.6493 13.6067 85.6759 14.0533 85.6759 14.36ZM82.4159 11.94C82.6293 11.94 82.9426 11.68 83.3559 11.16C83.7826 10.64 83.9959 10.2867 83.9959 10.1C83.9959 9.9 83.9226 9.8 83.7759 9.8C83.6426 9.8 83.4026 9.97333 83.0559 10.32C82.7226 10.6667 82.4559 10.9667 82.2559 11.22C82.2293 11.38 82.2159 11.5 82.2159 11.58C82.2159 11.82 82.2826 11.94 82.4159 11.94ZM93.7742 15.2C93.7742 15.9333 93.5809 16.3 93.1942 16.3C92.8876 16.3 92.6209 16.14 92.3942 15.82C92.1676 15.5 91.9942 15.2133 91.8742 14.96C91.7542 14.6933 91.6342 14.4467 91.5142 14.22C91.3942 13.98 91.2876 13.7 91.1942 13.38C91.1809 13.42 91.1409 13.56 91.0742 13.8L90.9142 14.34C90.7542 14.9267 90.6276 15.32 90.5342 15.52C90.4542 15.7067 90.3609 15.92 90.2542 16.16C90.1609 16.3867 90.0609 16.5733 89.9542 16.72C89.8476 16.8533 89.7342 16.9867 89.6142 17.12C89.3742 17.4 89.0809 17.54 88.7342 17.54C88.4009 17.54 88.0742 17.3467 87.7542 16.96C87.2076 16.32 86.8076 15.52 86.5542 14.56C86.4342 14.16 86.3742 13.7 86.3742 13.18C86.3742 12.66 86.5342 12.0867 86.8542 11.46C87.1742 10.82 87.6542 10.12 88.2942 9.36C88.9342 8.6 89.5276 8.22 90.0742 8.22C90.3676 8.22 90.7009 8.36 91.0742 8.64C91.1542 7.92 91.2876 6.9 91.4742 5.58C91.6609 4.26 91.7742 3.4 91.8142 3C91.8542 2.58667 91.9942 2.38 92.2342 2.38C92.4876 2.38 92.6676 2.51333 92.7742 2.78C92.8942 3.03333 92.9542 3.28667 92.9542 3.54C92.9542 3.79333 92.9342 4.02667 92.8942 4.24C92.5209 8.05333 92.3342 11.1533 92.3342 13.54C92.3342 13.9 92.4342 14.08 92.6342 14.08C92.8342 14.08 93.0476 13.9267 93.2742 13.62C93.5142 13.3 93.6676 13.14 93.7342 13.14C93.8142 13.14 93.8542 13.1933 93.8542 13.3L93.7142 14.16L93.7742 15.2ZM90.5542 10.34C90.5542 10.18 90.4742 10.1 90.3142 10.1C90.1676 10.1 89.9876 10.1667 89.7742 10.3C89.0809 10.6867 88.5076 11.2867 88.0542 12.1C87.6142 12.9133 87.3942 13.7267 87.3942 14.54C87.3942 15.0333 87.5476 15.28 87.8542 15.28C87.9742 15.28 88.1076 15.2067 88.2542 15.06C89.0009 14.2733 89.7409 12.82 90.4742 10.7C90.5276 10.5667 90.5542 10.4467 90.5542 10.34ZM98.89 12.28C98.89 13.8933 98.4233 15.3267 97.49 16.58C97.1567 17.0067 96.7833 17.22 96.37 17.22C95.97 17.22 95.65 17.12 95.41 16.92C94.5433 16.2 94.11 14.9667 94.11 13.22C94.11 12.0067 94.4367 10.46 95.09 8.58C95.1433 8.44667 95.19 8.36667 95.23 8.34C95.27 8.3 95.3367 8.28 95.43 8.28C95.5367 8.28 95.6633 8.21333 95.81 8.08C95.9567 7.93333 96.1967 7.86 96.53 7.86C96.8767 7.86 97.2233 7.98667 97.57 8.24C97.9167 8.49333 98.17 8.83333 98.33 9.26C98.7033 10.26 98.89 11.2667 98.89 12.28ZM97.23 10.98C97.23 9.75333 97.0767 9.14 96.77 9.14C96.6233 9.14 96.49 9.25333 96.37 9.48C95.8367 10.7467 95.57 12.26 95.57 14.02C95.57 14.46 95.5767 14.7933 95.59 15.02C96.6833 14.18 97.23 12.8333 97.23 10.98Z" fill="white"/>
</svg>
